<svg xmlns="http://www.w3.org/2000/svg" version="1.1" xmlns:xlink="http://www.w3.org/1999/xlink" xmlns:svgjs="http://svgjs.com/svgjs" width="1920" height="1080" preserveAspectRatio="none" viewBox="0 0 1920 1080"><g mask="url(&quot;#SvgjsMask1452&quot;)" fill="none"><rect width="1920" height="1080" x="0" y="0" fill="url(#SvgjsLinearGradient1453)"></rect><path d="M919.69 964.52L962.35 964.52L962.35 1007.18L919.69 1007.18z" fill="#037b0b"></path><path d="M210.51 37.72L285.96 37.72L285.96 112.81L210.51 112.81z" stroke="#037b0b"></path><path d="M1913.82 226.66L1951.62 226.66L1951.62 333.96L1913.82 333.96z" fill="#037b0b"></path><path d="M855.82 703.68L856.54 703.68L856.54 704.4L855.82 704.4z" stroke="#e73635"></path><path d="M1804.82 499.37a107.43 107.43 0 1 0-212.94-28.66z" stroke="#037b0b"></path><path d="M676.46 585.74a107.02 107.02 0 1 0 209.09 45.76z" fill="#d3b714"></path><path d="M1835.81 598.14a106.46 106.46 0 1 0 153.59-147.47z" stroke="#d3b714"></path><path d="M157.81 962.55L199.57 962.55L199.57 1004.31L157.81 1004.31z" stroke="#e73635"></path><path d="M1066.06 330.14 a78.54 78.54 0 1 0 157.08 0 a78.54 78.54 0 1 0 -157.08 0z" stroke="#d3b714"></path><path d="M711.82 318.46a45.46 45.46 0 1 0 42.22-80.52z" fill="#037b0b"></path><path d="M791.28 1020.85L828.58 1020.85L828.58 1109.66L791.28 1109.66z" stroke="#037b0b"></path><path d="M1498.34 789.28L1588.63 789.28L1588.63 856.71L1498.34 856.71z" stroke="#e73635"></path><path d="M1298.65 918.45L1396.75 918.45L1396.75 1023.21L1298.65 1023.21z" fill="#037b0b"></path><path d="M423.71 1071.78L530.17 1071.78L530.17 1178.24L423.71 1178.24z" fill="#037b0b"></path><path d="M940.24 182.6L994.27 182.6L994.27 237.35L940.24 237.35z" stroke="#d3b714"></path><path d="M392.6 708.53L475.36 708.53L475.36 791.29L392.6 791.29z" fill="#d3b714"></path><path d="M1658.29 1053.95L1688.02 1053.95L1688.02 1096.55L1658.29 1096.55z" stroke="#037b0b"></path><path d="M406.5 125.58L417.94 125.58L417.94 225.96L406.5 225.96z" fill="#037b0b"></path><path d="M28.23 760.74L77.53 760.74L77.53 810.04L28.23 810.04z" stroke="#d3b714"></path><path d="M1272.16 1046.69a90.6 90.6 0 1 0-86.84-159.04z" stroke="#e73635"></path><path d="M429.02 1015.62 a68.6 68.6 0 1 0 137.2 0 a68.6 68.6 0 1 0 -137.2 0z" fill="#d3b714"></path><path d="M14.73 315.69L102.02 315.69L102.02 402.98L14.73 402.98z" fill="#037b0b"></path><path d="M371.66 85.27a72.17 72.17 0 1 0-119.82-80.49z" stroke="#037b0b"></path></g><defs><mask id="SvgjsMask1452"><rect width="1920" height="1080" fill="#ffffff"></rect></mask><linearGradient x1="50%" y1="100%" x2="50%" y2="0%" gradientUnits="userSpaceOnUse" id="SvgjsLinearGradient1453"><stop stop-color="#0e2a47" offset="0"></stop><stop stop-color="rgba(35, 125, 241, 1)" offset="1"></stop></linearGradient></defs></svg>